<svg xmlns="http://www.w3.org/2000/svg" version="1.1" xmlns:xlink="http://www.w3.org/1999/xlink" width="1080" height="1080" viewBox="0 0 1080 1080"><rect width="1080" height="1080" fill="#0f0f23"></rect><path d="M 0 180 L 0 0 L 46.229949990923856 108 L 92.45989998184771 0 L 138.68984997277158 108 L 184.91979996369543 0 L 231.14974995461927 108 L 277.3796999455431 108 L 323.60964993646695 108 L 369.8395999273908 108 L 416.06954991831464 108 L 462.2994999092385 108 L 508.5294499001623 108 L 554.7593998910862 108 L 600.9893498820101 108 L 647.2192998729339 108 L 693.4492498638577 108 L 739.6791998547816 108 L 785.9091498457054 108 L 832.1390998366293 108 L 878.3690498275531 108 L 924.598999818477 108 L 970.8289498094008 108 L 1017.0588998003246 108 L 1063.2888497912486 108 L 1109.5187997821724 108 L 1126.2299499909238 180 Z" fill="#ff006e" opacity="0.8"></path><path d="M 0 360 L 0 180 L 46.229949990923856 288 L 92.45989998184771 180 L 138.68984997277158 288 L 184.91979996369543 180 L 231.14974995461927 288 L 277.3796999455431 288 L 323.60964993646695 288 L 369.8395999273908 288 L 416.06954991831464 288 L 462.2994999092385 288 L 508.5294499001623 288 L 554.7593998910862 288 L 600.9893498820101 288 L 647.2192998729339 288 L 693.4492498638577 288 L 739.6791998547816 288 L 785.9091498457054 288 L 832.1390998366293 288 L 878.3690498275531 288 L 924.598999818477 288 L 970.8289498094008 288 L 1017.0588998003246 288 L 1063.2888497912486 288 L 1109.5187997821724 288 L 1126.2299499909238 360 Z" fill="#8338ec" opacity="0.8"></path><path d="M 0 540 L 0 360 L 46.229949990923856 468 L 92.45989998184771 360 L 138.68984997277158 468 L 184.91979996369543 360 L 231.14974995461927 468 L 277.3796999455431 468 L 323.60964993646695 468 L 369.8395999273908 468 L 416.06954991831464 468 L 462.2994999092385 468 L 508.5294499001623 468 L 554.7593998910862 468 L 600.9893498820101 468 L 647.2192998729339 468 L 693.4492498638577 468 L 739.6791998547816 468 L 785.9091498457054 468 L 832.1390998366293 468 L 878.3690498275531 468 L 924.598999818477 468 L 970.8289498094008 468 L 1017.0588998003246 468 L 1063.2888497912486 468 L 1109.5187997821724 468 L 1126.2299499909238 540 Z" fill="#3a86ff" opacity="0.8"></path><path d="M 0 720 L 0 540 L 46.229949990923856 648 L 92.45989998184771 540 L 138.68984997277158 648 L 184.91979996369543 540 L 231.14974995461927 648 L 277.3796999455431 648 L 323.60964993646695 648 L 369.8395999273908 648 L 416.06954991831464 648 L 462.2994999092385 648 L 508.5294499001623 648 L 554.7593998910862 648 L 600.9893498820101 648 L 647.2192998729339 648 L 693.4492498638577 648 L 739.6791998547816 648 L 785.9091498457054 648 L 832.1390998366293 648 L 878.3690498275531 648 L 924.598999818477 648 L 970.8289498094008 648 L 1017.0588998003246 648 L 1063.2888497912486 648 L 1109.5187997821724 648 L 1126.2299499909238 720 Z" fill="#fb5607" opacity="0.8"></path><path d="M 0 900 L 0 720 L 46.229949990923856 828 L 92.45989998184771 720 L 138.68984997277158 828 L 184.91979996369543 720 L 231.14974995461927 828 L 277.3796999455431 828 L 323.60964993646695 828 L 369.8395999273908 828 L 416.06954991831464 828 L 462.2994999092385 828 L 508.5294499001623 828 L 554.7593998910862 828 L 600.9893498820101 828 L 647.2192998729339 828 L 693.4492498638577 828 L 739.6791998547816 828 L 785.9091498457054 828 L 832.1390998366293 828 L 878.3690498275531 828 L 924.598999818477 828 L 970.8289498094008 828 L 1017.0588998003246 828 L 1063.2888497912486 828 L 1109.5187997821724 828 L 1126.2299499909238 900 Z" fill="#ff006e" opacity="0.8"></path><path d="M 0 1080 L 0 900 L 46.229949990923856 1008 L 92.45989998184771 900 L 138.68984997277158 1008 L 184.91979996369543 900 L 231.14974995461927 1008 L 277.3796999455431 1008 L 323.60964993646695 1008 L 369.8395999273908 1008 L 416.06954991831464 1008 L 462.2994999092385 1008 L 508.5294499001623 1008 L 554.7593998910862 1008 L 600.9893498820101 1008 L 647.2192998729339 1008 L 693.4492498638577 1008 L 739.6791998547816 1008 L 785.9091498457054 1008 L 832.1390998366293 1008 L 878.3690498275531 1008 L 924.598999818477 1008 L 970.8289498094008 1008 L 1017.0588998003246 1008 L 1063.2888497912486 1008 L 1109.5187997821724 1008 L 1126.2299499909238 1080 Z" fill="#8338ec" opacity="0.8"></path></svg>